<?xml version="1.0" encoding="utf-8"?>
<!-- Generator: Adobe Illustrator 17.0.0, SVG Export Plug-In . SVG Version: 6.00 Build 0)  -->
<!DOCTYPE svg PUBLIC "-//W3C//DTD SVG 1.1//EN" "http://www.w3.org/Graphics/SVG/1.1/DTD/svg11.dtd">
<svg version="1.1" xmlns="http://www.w3.org/2000/svg" xmlns:xlink="http://www.w3.org/1999/xlink" x="0px" y="0px"
	 width="192.735px" height="100.006px" viewBox="0 0 192.735 100.006" enable-background="new 0 0 192.735 100.006"
	 xml:space="preserve">
<g id="Layer_6" display="none">
	<rect x="-97.297" y="-190.128" display="inline" stroke="#FFFFFF" stroke-miterlimit="10" width="727.928" height="377.478"/>
</g>
<g id="Layer_2">
	<circle fill="#FFFEFE" cx="50.491" cy="51.708" r="36.491"/>
</g>
<g id="Layer_1">
	<g>
		<path fill="#8C7630" d="M45.44,56.535c0-8.702,3.281-16.158,9.844-22.37c6.563-6.211,14.451-9.317,23.664-9.317
			c8.992,0,16.738,3.13,23.238,9.388c6.5,6.259,9.75,13.691,9.75,22.299c0,9.112-3.211,16.813-9.631,23.104
			c-6.421,6.29-14.301,9.435-23.641,9.435c-9.213,0-17.054-3.168-23.522-9.506C48.674,73.229,45.44,65.552,45.44,56.535z
			 M103.181,56.913c0-6.652-2.398-12.254-7.194-16.809c-4.796-4.555-10.696-6.832-17.701-6.832c-6.658,0-12.361,2.317-17.109,6.951
			c-4.749,4.634-7.123,10.197-7.123,16.69c0,6.588,2.437,12.16,7.312,16.714c4.875,4.555,10.846,6.831,17.914,6.831
			c6.5,0,12.108-2.324,16.825-6.973C100.821,68.836,103.181,63.312,103.181,56.913z"/>
	</g>
</g>
<g id="Layer_3">
	<path d="M79.265,74.151L52.495,15.272c-0.664-0.036-1.332-0.056-2.004-0.056c-0.686,0-1.366,0.021-2.043,0.058L21.835,74.301
		c1.919,2.431,4.142,4.611,6.611,6.485h0.04l7.733-17.244h28.597L72.61,80.73C75.099,78.83,77.338,76.618,79.265,74.151z
		 M60.041,55.872H41.233h-1.575l10.78-24.036l10.898,24.036H60.041z"/>
</g>
<g id="Layer_4">
	<g>
		<path fill="#8C7630" d="M122.333,59.602l4.387,9.649h-1.33l-1.078-2.378h-3.943l-1.066,2.378h-1.32L122.333,59.602z
			 M122.33,62.501l-1.486,3.314h2.989L122.33,62.501z"/>
		<path fill="#8C7630" d="M127.605,69.251v-6.017h1.24v0.999c0.365-0.404,0.695-0.699,0.992-0.886
			c0.297-0.187,0.627-0.281,0.992-0.281c0.545,0,1.01,0.18,1.397,0.54c0.387,0.36,0.58,0.793,0.58,1.298v4.347h-1.269v-3.975
			c0-0.326-0.106-0.596-0.317-0.81c-0.211-0.214-0.48-0.321-0.806-0.321c-0.423,0-0.788,0.178-1.094,0.536
			c-0.306,0.357-0.459,0.789-0.459,1.295v3.275H127.605z"/>
		<path fill="#8C7630" d="M134.221,69.251v-6.017h1.24v0.999c0.365-0.404,0.695-0.699,0.992-0.886
			c0.297-0.187,0.627-0.281,0.992-0.281c0.545,0,1.01,0.18,1.397,0.54c0.387,0.36,0.58,0.793,0.58,1.298v4.347h-1.269v-3.975
			c0-0.326-0.106-0.596-0.317-0.81c-0.212-0.214-0.48-0.321-0.806-0.321c-0.423,0-0.788,0.178-1.094,0.536
			c-0.306,0.357-0.459,0.789-0.459,1.295v3.275H134.221z"/>
		<path fill="#8C7630" d="M146.14,63.234h1.269v6.017h-1.269v-1.196c-0.618,0.909-1.383,1.364-2.297,1.364
			c-0.793,0-1.47-0.311-2.031-0.934c-0.562-0.622-0.842-1.378-0.842-2.268c0-0.841,0.283-1.577,0.85-2.207
			c0.566-0.629,1.231-0.944,1.995-0.944c0.472,0,0.919,0.129,1.342,0.387c0.423,0.258,0.751,0.593,0.985,1.007V63.234z
			 M146.315,66.26c0-0.549-0.197-1.02-0.592-1.412c-0.394-0.391-0.867-0.587-1.417-0.587c-0.536,0-1.003,0.194-1.403,0.583
			c-0.399,0.389-0.599,0.846-0.599,1.371c0,0.569,0.195,1.053,0.584,1.451c0.39,0.399,0.862,0.598,1.418,0.598
			c0.55,0,1.023-0.199,1.417-0.595C146.118,67.275,146.315,66.805,146.315,66.26z"/>
	</g>
	<g>
		<path fill="#8C7630" d="M118.269,75.856c0-1.341,0.506-2.49,1.517-3.447c1.011-0.957,2.227-1.436,3.647-1.436
			c1.386,0,2.579,0.482,3.581,1.447c1.002,0.964,1.502,2.11,1.502,3.436c0,1.404-0.495,2.591-1.484,3.56
			c-0.989,0.969-2.204,1.454-3.643,1.454c-1.42,0-2.628-0.488-3.625-1.465C118.768,78.429,118.269,77.246,118.269,75.856z
			 M127.167,75.915c0-1.025-0.37-1.889-1.109-2.59c-0.739-0.702-1.648-1.053-2.728-1.053c-1.026,0-1.905,0.357-2.636,1.071
			c-0.732,0.714-1.098,1.571-1.098,2.572c0,1.015,0.376,1.874,1.127,2.576c0.751,0.702,1.671,1.053,2.76,1.053
			c1.002,0,1.866-0.358,2.593-1.075C126.804,77.752,127.167,76.9,127.167,75.915z"/>
		<path fill="#8C7630" d="M133.975,71.09h1.254v9.467h-1.24v-1.254c-0.599,0.948-1.383,1.422-2.352,1.422
			c-0.784,0-1.456-0.314-2.016-0.941c-0.56-0.627-0.84-1.381-0.84-2.261c0-0.861,0.285-1.601,0.854-2.221
			c0.57-0.62,1.249-0.93,2.038-0.93c0.472,0,0.913,0.131,1.322,0.394s0.735,0.605,0.979,1.028V71.09z M134.12,77.537
			c0-0.54-0.197-1.008-0.592-1.404c-0.394-0.396-0.864-0.594-1.41-0.594c-0.565,0-1.044,0.193-1.436,0.58
			c-0.392,0.387-0.588,0.859-0.588,1.419c0,0.535,0.2,1.003,0.599,1.404c0.4,0.401,0.865,0.602,1.396,0.602
			c0.565,0,1.045-0.194,1.439-0.583C133.923,78.571,134.12,78.096,134.12,77.537z"/>
		<path fill="#8C7630" d="M142.058,77.793h-5.134c0.112,0.618,0.366,1.068,0.762,1.353c0.396,0.284,0.828,0.427,1.295,0.427
			c0.72,0,1.323-0.299,1.809-0.897l0.926,0.7c-0.695,0.9-1.626,1.349-2.793,1.349c-0.895,0-1.643-0.306-2.246-0.919
			c-0.603-0.613-0.904-1.374-0.904-2.283c0-0.851,0.305-1.589,0.915-2.214c0.61-0.625,1.355-0.937,2.235-0.937
			c0.865,0,1.607,0.317,2.224,0.952C141.764,75.958,142.068,76.781,142.058,77.793z M137.055,76.779h3.676
			c-0.408-0.827-1.011-1.24-1.809-1.24C138.052,75.539,137.43,75.952,137.055,76.779z"/>
		<path fill="#8C7630" d="M142.12,71.09h1.269v4.434c0.35-0.404,0.677-0.696,0.981-0.879c0.304-0.182,0.675-0.273,1.112-0.273
			c0.51,0,0.952,0.196,1.324,0.587c0.372,0.391,0.558,0.859,0.558,1.404v4.194h-1.269V76.72c0-0.379-0.096-0.683-0.288-0.912
			c-0.192-0.228-0.446-0.343-0.762-0.343c-0.457,0-0.847,0.173-1.171,0.518c-0.323,0.345-0.485,0.763-0.485,1.254v3.318h-1.269
			V71.09z"/>
	</g>
</g>
<g id="Layer_5">
	
		<line fill="#FFFFFF" stroke="#FFFFFF" stroke-width="2" stroke-miterlimit="10" x1="152.123" y1="60.019" x2="152.123" y2="80.557"/>
	<g>
		<path fill="#FFFFFF" d="M154.974,65.612h2.254c1.784,0,3.112,0.472,3.982,1.415c0.87,0.943,1.305,2.02,1.305,3.231
			c0,1.22-0.45,2.3-1.349,3.238c-0.9,0.938-2.207,1.408-3.924,1.408h-2.268V65.612z M156.243,66.852v6.797h0.073
			c0.943,0,1.653-0.043,2.13-0.128c0.477-0.085,0.929-0.271,1.357-0.558c0.428-0.287,0.768-0.667,1.021-1.141
			c0.253-0.474,0.379-0.996,0.379-1.564c0-0.715-0.202-1.361-0.605-1.94c-0.404-0.579-0.886-0.968-1.448-1.167
			c-0.562-0.199-1.316-0.299-2.265-0.299H156.243z"/>
		<path fill="#FFFFFF" d="M169.12,72.14h-5.134c0.112,0.618,0.366,1.068,0.762,1.353c0.396,0.284,0.828,0.427,1.295,0.427
			c0.72,0,1.322-0.299,1.809-0.897l0.926,0.7c-0.695,0.9-1.626,1.349-2.793,1.349c-0.895,0-1.643-0.306-2.246-0.919
			c-0.603-0.613-0.904-1.374-0.904-2.283c0-0.851,0.305-1.589,0.915-2.214c0.61-0.625,1.355-0.937,2.235-0.937
			c0.865,0,1.607,0.317,2.224,0.952C168.826,70.305,169.13,71.128,169.12,72.14z M164.117,71.126h3.676
			c-0.408-0.827-1.011-1.24-1.809-1.24C165.114,69.886,164.492,70.299,164.117,71.126z"/>
		<path fill="#FFFFFF" d="M173.464,69.602l-0.846,0.744c-0.219-0.156-0.408-0.273-0.569-0.354c-0.16-0.08-0.35-0.12-0.569-0.12
			c-0.515,0-0.773,0.19-0.773,0.569c0,0.272,0.327,0.536,0.981,0.793c0.654,0.256,1.124,0.537,1.411,0.844
			c0.287,0.306,0.43,0.675,0.43,1.107c0,0.505-0.207,0.946-0.62,1.322c-0.413,0.377-0.9,0.565-1.459,0.565
			c-0.851,0-1.549-0.394-2.093-1.182l0.999-0.481c0.35,0.34,0.715,0.511,1.094,0.511c0.263,0,0.492-0.072,0.689-0.215
			s0.295-0.31,0.295-0.5c0-0.335-0.345-0.637-1.036-0.905c-0.69-0.268-1.168-0.539-1.433-0.814
			c-0.265-0.274-0.397-0.613-0.397-1.017c0-0.501,0.188-0.917,0.565-1.25c0.377-0.333,0.85-0.499,1.419-0.499
			C172.122,68.719,172.759,69.013,173.464,69.602z"/>
		<path fill="#FFFFFF" d="M173.826,66.91c0-0.263,0.097-0.49,0.292-0.682c0.195-0.192,0.425-0.288,0.693-0.288
			c0.263,0,0.49,0.096,0.682,0.288c0.192,0.192,0.288,0.419,0.288,0.682c0,0.267-0.096,0.496-0.288,0.686
			c-0.192,0.19-0.419,0.284-0.682,0.284c-0.267,0-0.498-0.095-0.693-0.284C173.923,67.406,173.826,67.178,173.826,66.91z
			 M174.183,68.887h1.254v6.017h-1.254V68.887z"/>
		<path fill="#FFFFFF" d="M181.597,68.887h1.24v5.776c0,0.851-0.293,1.574-0.879,2.17c-0.586,0.596-1.295,0.893-2.126,0.893
			c-0.632,0-1.213-0.171-1.743-0.514c-0.53-0.343-0.919-0.864-1.167-1.564h1.313c0.394,0.652,0.941,0.977,1.641,0.977
			c0.476,0,0.882-0.171,1.218-0.514c0.335-0.343,0.503-0.755,0.503-1.236v-1.138c-0.613,0.89-1.386,1.335-2.319,1.335
			c-0.768,0-1.438-0.317-2.009-0.952c-0.571-0.635-0.857-1.385-0.857-2.25s0.278-1.607,0.835-2.224
			c0.557-0.618,1.219-0.926,1.987-0.926c0.992,0,1.78,0.479,2.363,1.437V68.887z M181.772,71.884c0-0.564-0.196-1.036-0.587-1.415
			c-0.391-0.379-0.876-0.569-1.455-0.569c-0.53,0-0.997,0.197-1.4,0.591c-0.404,0.394-0.605,0.848-0.605,1.364
			c0,0.559,0.199,1.041,0.598,1.444c0.399,0.404,0.873,0.605,1.422,0.605c0.559,0,1.037-0.197,1.433-0.591
			C181.574,72.92,181.772,72.443,181.772,71.884z"/>
		<path fill="#FFFFFF" d="M183.848,74.904v-6.017h1.24v0.999c0.365-0.404,0.695-0.699,0.992-0.886
			c0.297-0.187,0.627-0.281,0.992-0.281c0.545,0,1.01,0.18,1.397,0.54c0.387,0.36,0.58,0.793,0.58,1.298v4.347h-1.269v-3.975
			c0-0.326-0.106-0.596-0.317-0.81c-0.212-0.214-0.48-0.321-0.806-0.321c-0.423,0-0.788,0.179-1.094,0.536s-0.459,0.789-0.459,1.295
			v3.275H183.848z"/>
	</g>
</g>
</svg>
