<?xml version="1.0" encoding="utf-8"?>
<!-- Generator: Adobe Illustrator 17.0.0, SVG Export Plug-In . SVG Version: 6.00 Build 0)  -->
<!DOCTYPE svg PUBLIC "-//W3C//DTD SVG 1.1//EN" "http://www.w3.org/Graphics/SVG/1.1/DTD/svg11.dtd">
<svg version="1.1" id="Layer_1" xmlns="http://www.w3.org/2000/svg" xmlns:xlink="http://www.w3.org/1999/xlink" x="0px" y="0px"
	 width="41.375px" height="41px" viewBox="0 0 41.375 41" enable-background="new 0 0 41.375 41" xml:space="preserve">
<g>
	<circle stroke="#8C7630" stroke-width="1.3764" stroke-miterlimit="10" cx="97.537" cy="-447.54" r="18.881"/>
	<circle fill="none" stroke="#8C7630" stroke-width="1.8352" stroke-miterlimit="10" cx="97.537" cy="-447.54" r="18.881"/>
	<path fill="#FFFFFF" d="M111.885-452.853c-1.048,0.464-2.174,0.778-3.356,0.919c1.205-0.724,2.133-1.868,2.568-3.231
		c-1.129,0.669-2.379,1.155-3.709,1.417c-1.066-1.135-2.586-1.845-4.266-1.845c-3.226,0-5.842,2.616-5.842,5.842
		c0,0.458,0.052,0.905,0.151,1.332c-4.855-0.243-9.161-2.569-12.042-6.105c-0.504,0.862-0.791,1.866-0.791,2.937
		c0,2.027,1.031,3.815,2.599,4.863c-0.958-0.028-1.858-0.293-2.646-0.73c-0.001,0.025-0.001,0.049-0.001,0.074
		c0,2.83,2.014,5.191,4.686,5.729c-0.49,0.133-1.006,0.205-1.539,0.205c-0.377,0-0.743-0.037-1.1-0.104
		c0.743,2.319,2.901,4.009,5.458,4.057c-1.999,1.567-4.519,2.501-7.257,2.501c-0.471,0-0.936-0.028-1.393-0.082
		c2.585,1.658,5.656,2.625,8.955,2.625c10.746,0,16.623-8.903,16.623-16.622c0-0.254-0.006-0.506-0.017-0.757
		C110.111-450.653,111.102-451.683,111.885-452.853z"/>
</g>
<circle stroke="#8C7630" stroke-width="1.3764" stroke-miterlimit="10" cx="191.698" cy="-446.54" r="18.881"/>
<g>
	<path fill="#FFFFFF" d="M185.544-456.058c0,1.582-1.168,2.863-3.09,2.863c-1.808,0-2.977-1.281-2.977-2.863
		c0-1.621,1.206-2.864,3.052-2.864C184.376-458.922,185.507-457.679,185.544-456.058z M179.629-432.507v-18.426h5.727v18.426
		H179.629z"/>
	<path fill="#FFFFFF" d="M188.784-445.055c0-2.299-0.075-4.221-0.15-5.878h4.974l0.264,2.561h0.113
		c0.754-1.206,2.6-2.977,5.69-2.977c3.769,0,6.594,2.525,6.594,7.95v10.891h-5.728v-10.212c0-2.373-0.829-3.994-2.902-3.994
		c-1.582,0-2.523,1.093-2.939,2.148c-0.151,0.377-0.188,0.904-0.188,1.433v10.625h-5.728V-445.055z"/>
</g>
<circle fill="none" stroke="#8C7630" stroke-width="1.8352" stroke-miterlimit="10" cx="191.698" cy="-446.54" r="18.881"/>
<g>
	<circle stroke="#8C7630" stroke-width="1.4069" stroke-miterlimit="10" cx="144.537" cy="-448.14" r="19.301"/>
	<path fill="#FFFFFF" d="M138.043-429.487v-14.378h-3.803v-5.177h3.803c0,0,0-2.122,0-4.422c0-3.475,2.246-6.666,7.42-6.666
		c2.096,0,3.645,0.2,3.645,0.2l-0.122,4.836c0,0-1.581-0.016-3.304-0.016c-1.866,0-2.166,0.859-2.166,2.287c0,1.129,0-2.406,0,3.78
		h5.619l-0.245,5.177h-5.374v14.378H138.043z"/>
	<circle fill="none" stroke="#8C7630" stroke-width="1.4069" stroke-miterlimit="10" cx="144.537" cy="-447.958" r="19.3"/>
</g>
<g>
	<circle stroke="#8C7630" stroke-width="1.3764" stroke-miterlimit="10" cx="97.537" cy="-447.54" r="18.881"/>
	<circle fill="none" stroke="#8C7630" stroke-width="1.8352" stroke-miterlimit="10" cx="97.537" cy="-447.54" r="18.881"/>
	<path fill="#FFFFFF" d="M111.885-452.853c-1.048,0.464-2.174,0.778-3.356,0.919c1.205-0.724,2.133-1.868,2.568-3.231
		c-1.129,0.669-2.379,1.155-3.709,1.417c-1.066-1.135-2.586-1.845-4.266-1.845c-3.226,0-5.842,2.616-5.842,5.842
		c0,0.458,0.052,0.905,0.151,1.332c-4.855-0.243-9.161-2.569-12.042-6.105c-0.504,0.862-0.791,1.866-0.791,2.937
		c0,2.027,1.031,3.815,2.599,4.863c-0.958-0.028-1.858-0.293-2.646-0.73c-0.001,0.025-0.001,0.049-0.001,0.074
		c0,2.83,2.014,5.191,4.686,5.729c-0.49,0.133-1.006,0.205-1.539,0.205c-0.377,0-0.743-0.037-1.1-0.104
		c0.743,2.319,2.901,4.009,5.458,4.057c-1.999,1.567-4.519,2.501-7.257,2.501c-0.471,0-0.936-0.028-1.393-0.082
		c2.585,1.658,5.656,2.625,8.955,2.625c10.746,0,16.623-8.903,16.623-16.622c0-0.254-0.006-0.506-0.017-0.757
		C110.111-450.653,111.102-451.683,111.885-452.853z"/>
</g>
<circle stroke="#8C7630" stroke-width="1.3764" stroke-miterlimit="10" cx="191.698" cy="-446.54" r="18.881"/>
<g>
	<path fill="#FFFFFF" d="M185.544-456.058c0,1.582-1.168,2.863-3.09,2.863c-1.808,0-2.977-1.281-2.977-2.863
		c0-1.621,1.206-2.864,3.052-2.864C184.376-458.922,185.507-457.679,185.544-456.058z M179.629-432.507v-18.426h5.727v18.426
		H179.629z"/>
	<path fill="#FFFFFF" d="M188.784-445.055c0-2.299-0.075-4.221-0.15-5.878h4.974l0.264,2.561h0.113
		c0.754-1.206,2.6-2.977,5.69-2.977c3.769,0,6.594,2.525,6.594,7.95v10.891h-5.728v-10.212c0-2.373-0.829-3.994-2.902-3.994
		c-1.582,0-2.523,1.093-2.939,2.148c-0.151,0.377-0.188,0.904-0.188,1.433v10.625h-5.728V-445.055z"/>
</g>
<circle fill="none" stroke="#8C7630" stroke-width="1.8352" stroke-miterlimit="10" cx="191.698" cy="-446.54" r="18.881"/>
<g>
	<circle stroke="#8C7630" stroke-width="1.4069" stroke-miterlimit="10" cx="144.537" cy="-448.14" r="19.301"/>
	<path fill="#FFFFFF" d="M138.043-429.487v-14.378h-3.803v-5.177h3.803c0,0,0-2.122,0-4.422c0-3.475,2.246-6.666,7.42-6.666
		c2.096,0,3.645,0.2,3.645,0.2l-0.122,4.836c0,0-1.581-0.016-3.304-0.016c-1.866,0-2.166,0.859-2.166,2.287c0,1.129,0-2.406,0,3.78
		h5.619l-0.245,5.177h-5.374v14.378H138.043z"/>
	<circle fill="none" stroke="#8C7630" stroke-width="1.4069" stroke-miterlimit="10" cx="144.537" cy="-447.958" r="19.3"/>
</g>
<g>
	<circle stroke="#8C7630" stroke-width="1.3764" stroke-miterlimit="10" cx="20.537" cy="20.46" r="18.881"/>
	<circle fill="none" stroke="#8C7630" stroke-width="1.8352" stroke-miterlimit="10" cx="20.537" cy="20.46" r="18.881"/>
	<path fill="#FFFFFF" d="M34.885,15.146c-1.048,0.464-2.174,0.778-3.355,0.919c1.205-0.724,2.133-1.868,2.568-3.231
		c-1.129,0.669-2.379,1.155-3.709,1.417c-1.066-1.135-2.586-1.845-4.266-1.845c-3.226,0-5.842,2.616-5.842,5.842
		c0,0.458,0.052,0.905,0.151,1.332c-4.856-0.243-9.161-2.569-12.042-6.104C7.887,14.338,7.6,15.342,7.6,16.412
		c0,2.027,1.031,3.815,2.599,4.863c-0.958-0.028-1.858-0.293-2.646-0.73c-0.001,0.025-0.001,0.049-0.001,0.074
		c0,2.83,2.014,5.191,4.687,5.729c-0.49,0.133-1.006,0.205-1.539,0.205c-0.377,0-0.743-0.037-1.1-0.104
		c0.743,2.319,2.901,4.009,5.458,4.057c-1.999,1.567-4.519,2.501-7.257,2.501c-0.471,0-0.936-0.028-1.393-0.082
		c2.585,1.658,5.656,2.625,8.955,2.625c10.746,0,16.623-8.903,16.623-16.622c0-0.254-0.006-0.506-0.017-0.757
		C33.111,17.347,34.102,16.317,34.885,15.146z"/>
</g>
<circle stroke="#8C7630" stroke-width="1.3764" stroke-miterlimit="10" cx="114.698" cy="21.46" r="18.881"/>
<g>
	<path fill="#FFFFFF" d="M108.544,11.942c0,1.582-1.168,2.863-3.09,2.863c-1.808,0-2.977-1.281-2.977-2.863
		c0-1.621,1.206-2.864,3.052-2.864C107.376,9.078,108.507,10.321,108.544,11.942z M102.629,35.493V17.067h5.727v18.426H102.629z"/>
	<path fill="#FFFFFF" d="M111.784,22.945c0-2.299-0.075-4.221-0.15-5.878h4.974l0.264,2.562h0.113c0.754-1.206,2.6-2.977,5.69-2.977
		c3.769,0,6.594,2.525,6.594,7.95v10.891h-5.728V25.281c0-2.373-0.829-3.994-2.902-3.994c-1.582,0-2.524,1.093-2.938,2.148
		c-0.151,0.377-0.188,0.904-0.188,1.433v10.625h-5.728V22.945z"/>
</g>
<circle fill="none" stroke="#8C7630" stroke-width="1.8352" stroke-miterlimit="10" cx="114.698" cy="21.46" r="18.881"/>
<g>
	<circle stroke="#8C7630" stroke-width="1.4069" stroke-miterlimit="10" cx="67.537" cy="19.86" r="19.301"/>
	<path fill="#FFFFFF" d="M61.043,38.513V24.135H57.24v-5.177h3.803c0,0,0-2.122,0-4.422c0-3.475,2.246-6.666,7.42-6.666
		c2.096,0,3.645,0.2,3.645,0.2l-0.122,4.836c0,0-1.581-0.016-3.304-0.016c-1.866,0-2.166,0.859-2.166,2.287c0,1.129,0-2.406,0,3.78
		h5.619l-0.245,5.177h-5.374v14.378H61.043z"/>
	<circle fill="none" stroke="#8C7630" stroke-width="1.4069" stroke-miterlimit="10" cx="67.537" cy="20.042" r="19.3"/>
</g>
</svg>
