<?xml version="1.0" encoding="utf-8"?>
<!-- Generator: Adobe Illustrator 17.0.0, SVG Export Plug-In . SVG Version: 6.00 Build 0)  -->
<!DOCTYPE svg PUBLIC "-//W3C//DTD SVG 1.1//EN" "http://www.w3.org/Graphics/SVG/1.1/DTD/svg11.dtd">
<svg version="1.1" id="Layer_1" xmlns="http://www.w3.org/2000/svg" xmlns:xlink="http://www.w3.org/1999/xlink" x="0px" y="0px"
	 width="41.375px" height="41px" viewBox="0 0 41.375 41" enable-background="new 0 0 41.375 41" xml:space="preserve">
<g>
	<circle stroke="#8C7630" stroke-width="1.3764" stroke-miterlimit="10" cx="50.787" cy="-447.29" r="18.881"/>
	<circle fill="none" stroke="#8C7630" stroke-width="1.8352" stroke-miterlimit="10" cx="50.787" cy="-447.29" r="18.881"/>
	<path fill="#FFFFFF" d="M65.135-452.603c-1.048,0.464-2.174,0.778-3.356,0.919c1.205-0.724,2.133-1.868,2.568-3.231
		c-1.129,0.669-2.379,1.155-3.709,1.417c-1.066-1.135-2.586-1.845-4.266-1.845c-3.226,0-5.842,2.616-5.842,5.842
		c0,0.458,0.052,0.905,0.151,1.332c-4.855-0.243-9.161-2.569-12.042-6.105c-0.504,0.862-0.791,1.866-0.791,2.937
		c0,2.027,1.031,3.815,2.599,4.863c-0.958-0.028-1.858-0.293-2.646-0.73c-0.001,0.025-0.001,0.049-0.001,0.074
		c0,2.83,2.014,5.191,4.687,5.729c-0.49,0.133-1.006,0.205-1.539,0.205c-0.377,0-0.743-0.037-1.1-0.104
		c0.743,2.319,2.901,4.009,5.458,4.057c-1.999,1.567-4.518,2.501-7.257,2.501c-0.471,0-0.936-0.028-1.393-0.082
		c2.585,1.658,5.656,2.625,8.955,2.625c10.746,0,16.623-8.903,16.623-16.622c0-0.254-0.006-0.506-0.017-0.757
		C63.361-450.403,64.352-451.433,65.135-452.603z"/>
</g>
<circle stroke="#8C7630" stroke-width="1.3764" stroke-miterlimit="10" cx="144.948" cy="-446.29" r="18.881"/>
<g>
	<path fill="#FFFFFF" d="M138.794-455.808c0,1.582-1.168,2.863-3.09,2.863c-1.808,0-2.977-1.281-2.977-2.863
		c0-1.621,1.206-2.864,3.052-2.864C137.626-458.672,138.757-457.429,138.794-455.808z M132.879-432.257v-18.426h5.727v18.426
		H132.879z"/>
	<path fill="#FFFFFF" d="M142.034-444.805c0-2.299-0.075-4.221-0.15-5.878h4.974l0.264,2.561h0.113
		c0.754-1.206,2.6-2.977,5.69-2.977c3.769,0,6.594,2.525,6.594,7.95v10.891h-5.728v-10.212c0-2.373-0.829-3.994-2.902-3.994
		c-1.582,0-2.523,1.093-2.939,2.148c-0.151,0.377-0.188,0.904-0.188,1.433v10.625h-5.728V-444.805z"/>
</g>
<circle fill="none" stroke="#8C7630" stroke-width="1.8352" stroke-miterlimit="10" cx="144.948" cy="-446.29" r="18.881"/>
<g>
	<circle stroke="#8C7630" stroke-width="1.4069" stroke-miterlimit="10" cx="97.787" cy="-447.89" r="19.301"/>
	<path fill="#FFFFFF" d="M91.293-429.237v-14.378H87.49v-5.177h3.803c0,0,0-2.122,0-4.422c0-3.475,2.246-6.666,7.42-6.666
		c2.096,0,3.645,0.2,3.645,0.2l-0.122,4.836c0,0-1.581-0.016-3.304-0.016c-1.866,0-2.166,0.859-2.166,2.287c0,1.129,0-2.406,0,3.78
		h5.619l-0.245,5.177h-5.374v14.378H91.293z"/>
	<circle fill="none" stroke="#8C7630" stroke-width="1.4069" stroke-miterlimit="10" cx="97.787" cy="-447.708" r="19.3"/>
</g>
<g>
	<circle stroke="#8C7630" stroke-width="1.3764" stroke-miterlimit="10" cx="50.787" cy="-447.29" r="18.881"/>
	<circle fill="none" stroke="#8C7630" stroke-width="1.8352" stroke-miterlimit="10" cx="50.787" cy="-447.29" r="18.881"/>
	<path fill="#FFFFFF" d="M65.135-452.603c-1.048,0.464-2.174,0.778-3.356,0.919c1.205-0.724,2.133-1.868,2.568-3.231
		c-1.129,0.669-2.379,1.155-3.709,1.417c-1.066-1.135-2.586-1.845-4.266-1.845c-3.226,0-5.842,2.616-5.842,5.842
		c0,0.458,0.052,0.905,0.151,1.332c-4.855-0.243-9.161-2.569-12.042-6.105c-0.504,0.862-0.791,1.866-0.791,2.937
		c0,2.027,1.031,3.815,2.599,4.863c-0.958-0.028-1.858-0.293-2.646-0.73c-0.001,0.025-0.001,0.049-0.001,0.074
		c0,2.83,2.014,5.191,4.687,5.729c-0.49,0.133-1.006,0.205-1.539,0.205c-0.377,0-0.743-0.037-1.1-0.104
		c0.743,2.319,2.901,4.009,5.458,4.057c-1.999,1.567-4.518,2.501-7.257,2.501c-0.471,0-0.936-0.028-1.393-0.082
		c2.585,1.658,5.656,2.625,8.955,2.625c10.746,0,16.623-8.903,16.623-16.622c0-0.254-0.006-0.506-0.017-0.757
		C63.361-450.403,64.352-451.433,65.135-452.603z"/>
</g>
<circle stroke="#8C7630" stroke-width="1.3764" stroke-miterlimit="10" cx="144.948" cy="-446.29" r="18.881"/>
<g>
	<path fill="#FFFFFF" d="M138.794-455.808c0,1.582-1.168,2.863-3.09,2.863c-1.808,0-2.977-1.281-2.977-2.863
		c0-1.621,1.206-2.864,3.052-2.864C137.626-458.672,138.757-457.429,138.794-455.808z M132.879-432.257v-18.426h5.727v18.426
		H132.879z"/>
	<path fill="#FFFFFF" d="M142.034-444.805c0-2.299-0.075-4.221-0.15-5.878h4.974l0.264,2.561h0.113
		c0.754-1.206,2.6-2.977,5.69-2.977c3.769,0,6.594,2.525,6.594,7.95v10.891h-5.728v-10.212c0-2.373-0.829-3.994-2.902-3.994
		c-1.582,0-2.523,1.093-2.939,2.148c-0.151,0.377-0.188,0.904-0.188,1.433v10.625h-5.728V-444.805z"/>
</g>
<circle fill="none" stroke="#8C7630" stroke-width="1.8352" stroke-miterlimit="10" cx="144.948" cy="-446.29" r="18.881"/>
<g>
	<circle stroke="#8C7630" stroke-width="1.4069" stroke-miterlimit="10" cx="97.787" cy="-447.89" r="19.301"/>
	<path fill="#FFFFFF" d="M91.293-429.237v-14.378H87.49v-5.177h3.803c0,0,0-2.122,0-4.422c0-3.475,2.246-6.666,7.42-6.666
		c2.096,0,3.645,0.2,3.645,0.2l-0.122,4.836c0,0-1.581-0.016-3.304-0.016c-1.866,0-2.166,0.859-2.166,2.287c0,1.129,0-2.406,0,3.78
		h5.619l-0.245,5.177h-5.374v14.378H91.293z"/>
	<circle fill="none" stroke="#8C7630" stroke-width="1.4069" stroke-miterlimit="10" cx="97.787" cy="-447.708" r="19.3"/>
</g>
<g>
	<circle stroke="#8C7630" stroke-width="1.3764" stroke-miterlimit="10" cx="19.787" cy="20.46" r="18.881"/>
	<circle fill="none" stroke="#8C7630" stroke-width="1.8352" stroke-miterlimit="10" cx="19.787" cy="20.46" r="18.881"/>
	<path fill="#FFFFFF" d="M34.135,15.146c-1.048,0.464-2.174,0.778-3.355,0.919c1.205-0.724,2.133-1.868,2.568-3.231
		c-1.129,0.669-2.379,1.155-3.709,1.417c-1.066-1.135-2.586-1.845-4.266-1.845c-3.226,0-5.842,2.616-5.842,5.842
		c0,0.458,0.052,0.905,0.151,1.332c-4.856-0.243-9.161-2.569-12.042-6.104c-0.504,0.862-0.791,1.866-0.791,2.936
		c0,2.027,1.031,3.815,2.599,4.863c-0.958-0.028-1.858-0.293-2.646-0.73c-0.001,0.025-0.001,0.049-0.001,0.074
		c0,2.83,2.014,5.191,4.687,5.729c-0.49,0.133-1.006,0.205-1.539,0.205c-0.377,0-0.743-0.037-1.1-0.104
		c0.743,2.319,2.901,4.009,5.458,4.057c-1.999,1.567-4.519,2.501-7.257,2.501c-0.471,0-0.936-0.028-1.393-0.082
		c2.585,1.658,5.656,2.625,8.955,2.625c10.746,0,16.623-8.903,16.623-16.622c0-0.254-0.006-0.506-0.017-0.757
		C32.361,17.347,33.352,16.317,34.135,15.146z"/>
</g>
<circle stroke="#8C7630" stroke-width="1.3764" stroke-miterlimit="10" cx="67.948" cy="21.71" r="18.881"/>
<g>
	<path fill="#FFFFFF" d="M61.794,12.192c0,1.582-1.168,2.863-3.09,2.863c-1.808,0-2.977-1.281-2.977-2.863
		c0-1.621,1.206-2.864,3.052-2.864C60.626,9.328,61.757,10.571,61.794,12.192z M55.879,35.743V17.317h5.727v18.426H55.879z"/>
	<path fill="#FFFFFF" d="M65.034,23.195c0-2.299-0.075-4.221-0.15-5.878h4.974l0.264,2.562h0.113c0.754-1.206,2.6-2.977,5.69-2.977
		c3.769,0,6.594,2.525,6.594,7.95v10.891h-5.728V25.531c0-2.373-0.829-3.994-2.902-3.994c-1.582,0-2.524,1.093-2.938,2.148
		c-0.151,0.377-0.188,0.904-0.188,1.433v10.625h-5.728V23.195z"/>
</g>
<circle fill="none" stroke="#8C7630" stroke-width="1.8352" stroke-miterlimit="10" cx="67.948" cy="21.71" r="18.881"/>
<g>
	<circle stroke="#8C7630" stroke-width="1.4069" stroke-miterlimit="10" cx="20.787" cy="20.11" r="19.301"/>
	<path fill="#FFFFFF" d="M14.293,38.763V24.385H10.49v-5.177h3.803c0,0,0-2.122,0-4.422c0-3.475,2.246-6.666,7.42-6.666
		c2.096,0,3.645,0.2,3.645,0.2l-0.122,4.836c0,0-1.581-0.016-3.304-0.016c-1.866,0-2.166,0.859-2.166,2.287c0,1.129,0-2.406,0,3.78
		h5.619l-0.245,5.177h-5.374v14.378H14.293z"/>
	<circle fill="none" stroke="#8C7630" stroke-width="1.4069" stroke-miterlimit="10" cx="20.787" cy="20.292" r="19.3"/>
</g>
</svg>
